<svg id="visual" viewBox="0 0 675 900" width="675" height="900" xmlns="http://www.w3.org/2000/svg" xmlns:xlink="http://www.w3.org/1999/xlink" version="1.1"><path d="M0 82L135 109L270 127L405 91L540 100L675 91L675 0L540 0L405 0L270 0L135 0L0 0Z" fill="#2f265f"></path><path d="M0 307L135 289L270 361L405 325L540 343L675 307L675 89L540 98L405 89L270 125L135 107L0 80Z" fill="#2c215c"></path><path d="M0 433L135 442L270 505L405 469L540 460L675 451L675 305L540 341L405 323L270 359L135 287L0 305Z" fill="#291b5a"></path><path d="M0 514L135 523L270 577L405 541L540 541L675 523L675 449L540 458L405 467L270 503L135 440L0 431Z" fill="#261557"></path><path d="M0 730L135 748L270 775L405 730L540 748L675 739L675 521L540 539L405 539L270 575L135 521L0 512Z" fill="#240e54"></path><path d="M0 802L135 820L270 829L405 811L540 829L675 802L675 737L540 746L405 728L270 773L135 746L0 728Z" fill="#210751"></path><path d="M0 901L135 901L270 901L405 901L540 901L675 901L675 800L540 827L405 809L270 827L135 818L0 800Z" fill="#1f004e"></path></svg>